<svg xmlns="http://www.w3.org/2000/svg" viewBox="0 0 48 48">
  <path fill="#EA4335" d="M24 9.5c3.54 0 6.73 1.22 9.24 3.6l6.89-6.89C35.94 2.3 30.43 0 24 0 14.64 0 6.56 5.38 2.6 13.22l8.03 6.24C12.54 13.46 17.79 9.5 24 9.5z"/>
  <path fill="#4285F4" d="M46.5 24.5c0-1.64-.15-3.22-.43-4.74H24v9h12.68c-.55 2.96-2.22 5.47-4.73 7.16l7.64 5.93C44.09 37.69 46.5 31.65 46.5 24.5z"/>
  <path fill="#FBBC05" d="M10.63 28.54A14.48 14.48 0 0 1 9.5 24c0-1.58.28-3.1.78-4.54L2.25 13.22A23.84 23.84 0 0 0 0 24c0 3.84.92 7.47 2.55 10.68l8.08-6.14z"/>
  <path fill="#34A853" d="M24 48c6.48 0 11.92-2.13 15.89-5.79l-7.64-5.93c-2.12 1.43-4.84 2.22-8.25 2.22-6.21 0-11.46-3.96-13.37-9.46l-8.08 6.14C6.56 42.62 14.64 48 24 48z"/>
</svg>